<svg xmlns="http://www.w3.org/2000/svg" xmlns:xlink="http://www.w3.org/1999/xlink" version="1.1" x="0" y="0" viewBox="0 0 964.5 374.1" enable-background="new 0 0 964.5 374.1" width="100%" height="100%" style="max-height: 100%" xml:space="preserve">
  <g id="Layer_2"/>
  <g id="Layer_1">
    <path fill="#FFFFFF" d="M58.4 341.9c0 15.8-13.1 28.9-29.5 28.9S0 357.7 0 341.9V28.4C0 13.1 12.6 0 30 0c15.3 0 28.4 13.1 28.4 28.4"/>
    <path fill="#FFFFFF" d="M352.8 370.8c-16.4 0-28.9-13.1-28.9-28.9V28.4c0-15.3 12.6-28.4 30-28.4 15.3 0 28.4 13.1 28.4 28.4v313.5C382.3 357.7 369.2 370.8 352.8 370.8z"/>
    <path fill="#FFFFFF" d="M493.7 35.5c0 20.2-16.4 36-36 36s-36-15.8-36-36c0-19.7 16.4-35.5 36-35.5S493.7 15.8 493.7 35.5z"/>
    <path fill="#FFFFFF" d="M457.7 370.8c-16.4 0-28.9-13.1-28.9-28.9v-213c0-15.3 12.6-28.4 30-28.4 15.3 0 28.4 13.1 28.4 28.4v213C487.2 357.7 474.1 370.8 457.7 370.8z"/>
    <path fill="#FFFFFF" d="M624.2 374.1c-35.5 0-82.5-10.9-103.2-34.4 -3.3-3.8-5.5-8.7-5.5-14.2 0-13.7 12-24.6 25.1-24.6 4.4 0 9.3 1.1 13.1 3.8 20.2 13.7 47.5 23.5 72.6 23.5 34.4 0 51.3-14.7 51.3-35 0-51.3-159.5-14.2-159.5-115.8 0-43.1 37.7-80.3 104.9-80.3 35.5 0 75.4 10.9 93.4 31.7 3.3 3.8 4.9 8.2 4.9 13.1 0 12.6-10.9 22.4-23.5 22.4 -3.8 0-8.2-1.1-12-3.3 -16.9-11.5-39.3-18.6-62.8-18.6 -29.5 0-48.1 14.2-48.1 32.2 0 46.4 158.9 11.5 158.9 116.3C734 338 695.2 374.1 624.2 374.1z"/>
    <path fill="#FFFFFF" d="M854.7 374.1c-35.5 0-82.5-10.9-103.2-34.4 -3.3-3.8-5.5-8.7-5.5-14.2 0-13.7 12-24.6 25.1-24.6 4.4 0 9.3 1.1 13.1 3.8 20.2 13.7 47.5 23.5 72.6 23.5 34.4 0 51.3-14.7 51.3-35 0-51.3-159.5-14.2-159.5-115.8 0-43.1 37.7-80.3 104.9-80.3 35.5 0 75.4 10.9 93.4 31.7 3.3 3.8 4.9 8.2 4.9 13.1 0 12.6-10.9 22.4-23.5 22.4 -3.8 0-8.2-1.1-12-3.3 -16.9-11.5-39.3-18.6-62.8-18.6 -29.5 0-48.1 14.2-48.1 32.2 0 46.4 158.9 11.5 158.9 116.3C964.5 338 925.7 374.1 854.7 374.1z"/>
    <path fill="#FFFFFF" d="M138.4 97.2C62 97.2 0 159.2 0 235.6s62 138.4 138.4 138.4 138.4-62 138.4-138.4S214.9 97.2 138.4 97.2zM138.4 311.6c-41.9 0-75.9-34-75.9-75.9 0-41.9 34-75.9 75.9-75.9s75.9 34 75.9 75.9C214.4 277.6 180.4 311.6 138.4 311.6z"/>
  </g>
</svg>
