<svg xmlns="http://www.w3.org/2000/svg" xmlns:xlink="http://www.w3.org/1999/xlink" version="1.1" id="Layer_1" x="0" y="0" viewBox="-987 989 24 24" enable-background="new -987 989 24 24" xml:space="preserve">
  <path d="M-967 991h-2v-0.5c0-0.8-0.7-1.5-1.5-1.5s-1.5 0.7-1.5 1.5v0.5h-7v-0.5c0-0.8-0.7-1.5-1.5-1.5s-1.5 0.7-1.5 1.5v0.5h-2c-1.7 0-3 1.4-3 3.1v13.9c0 1.7 1.3 3 3 3h17c1.7 0 3-1.3 3-3v-13.9C-964 992.4-965.3 991-967 991zM-967 1008h-17v-14h2v0.5c0 0.8 0.7 1.5 1.5 1.5s1.5-0.7 1.5-1.5V994h7v0.5c0 0.8 0.7 1.5 1.5 1.5s1.5-0.7 1.5-1.5V994h2V1008zM-982 1001h3v-3h-3V1001zM-982 1006h3v-3h-3V1006zM-977 1006h3v-3h-3V1006zM-972 1001h3v-3h-3V1001zM-977 1001h3v-3h-3V1001zM-972 1006h3v-3h-3V1006z"/>
</svg>
