<svg xmlns="http://www.w3.org/2000/svg" xmlns:xlink="http://www.w3.org/1999/xlink" version="1.1" id="Layer_1" x="0" y="0" viewBox="-985.2 990.8 19.4 19.4" enable-background="new -985.2 990.8 19.4 19.4" xml:space="preserve">
  <path fill="#c7c7c7" d="M-969.5 1010l-6-6 -6 6c-0.2 0.2-0.5 0.2-0.7 0l-2.8-2.8c-0.2-0.2-0.2-0.5 0-0.7l6-6 -6-6c-0.2-0.2-0.2-0.5 0-0.7l2.8-2.8c0.2-0.2 0.5-0.2 0.7 0l6 6 6-6c0.2-0.2 0.5-0.2 0.7 0l2.8 2.8c0.2 0.2 0.2 0.5 0 0.7l-6 6 6 6c0.2 0.2 0.2 0.5 0 0.7l-2.8 2.8C-969 1010.2-969.3 1010.2-969.5 1010z"/>
</svg>
