<svg xmlns="http://www.w3.org/2000/svg" xmlns:xlink="http://www.w3.org/1999/xlink" version="1.1" x="0" y="0" viewBox="0 0 378.2 302.1" enable-background="new 0 0 378.2 302.1" xml:space="preserve">
  <g id="Layer_2"/>
  <g id="Layer_1">
    <path fill="#E8ECEE" d="M355 281.8c0 11-9.6 20.3-20.7 20.3h-315c-11 0-19.3-9.2-19.3-20.3v-222c0-11 8.3-19.7 19.3-19.7h315c11 0 20.7 8.7 20.7 19.7V281.8z"/>
    <path fill="#FFFFFF" d="M338 270.1c0 5.5-4.5 10-10 10H26c-5.5 0-10-4.5-10-10v-172c0-5.5 4.5-10 10-10h302c5.5 0 10 4.5 10 10V270.1z"/>
    <circle fill="#FFFFFF" cx="27.3" cy="64.5" r="9.7"/>
    <circle fill="#EE493C" cx="27.3" cy="64.5" r="9.7"/>
    <circle fill="#F4C341" cx="57.3" cy="64.5" r="9.7"/>
    <circle fill="#42B875" cx="87.3" cy="64.5" r="9.7"/>
    <path fill="#2299D5" d="M137.9 209.1c1.8 0.7 3.3 2.9 3.3 4.8v19.4c0 1.9-1.5 2.9-3.2 2.1l-87.4-37.9c-1.8-0.8-3.2-3-3.2-4.9v-15.6c0-1.9 1.5-4.1 3.2-4.9l87.4-37.9c1.8-0.8 3.2 0.2 3.2 2.1v19.6c0 1.9-1.5 4.1-3.3 4.8L79 183.4c-1.8 0.7-1.8 1.8 0 2.6L137.9 209.1z"/>
    <path fill="#2299D5" d="M199.2 132.3l-26.1 107.6c-0.9 3.5-1.6 6.3-2.3 8.4 -0.7 2.1-1.6 3.7-3 4.8 -1.3 1.2-3.3 1.7-5.8 1.7 -6.3 0-9.5-2.7-9.5-8.2 0-1.4 0.6-5 1.9-10.7l26-107.6c1.4-5.7 2.7-9.6 3.9-11.8 1.2-2.1 3.7-3.2 7.3-3.2 3.1 0 5.5 0.7 7.1 2.2 1.6 1.5 2.5 3.5 2.5 6.2C201.2 123.7 200.5 127.2 199.2 132.3z"/>
    <path fill="#1C80B6" d="M306.3 192.6c0 1.9-1.5 4.1-3.2 4.9l-87.5 38.1c-1.8 0.8-3.2-0.2-3.2-2.1v-19.4c0-1.9 1.5-4.1 3.3-4.8l59.1-23.2c1.8-0.7 1.8-1.9 0-2.6l-59.1-22.9c-1.8-0.7-3.3-2.8-3.3-4.8v-19.2c0-1.9 1.5-2.9 3.2-2.1l87.4 37.7c1.8 0.8 3.2 3 3.2 4.9V192.6z"/>
    <path fill="#F4C341" d="M298.3 130.4c0-40.5 19.5-60 60-60 -40.5 0-60-19.5-60-60 0 40.5-19.5 60-60 60C278.8 70.3 298.3 89.8 298.3 130.4z"/>
    <path fill="#F4C341" d="M343 163.2c0-23.8 11.4-35.2 35.2-35.2 -23.8 0-35.2-11.4-35.2-35.2 0 23.8-11.4 35.2-35.2 35.2C331.6 128 343 139.4 343 163.2z"/>
    <path fill="#F4C341" d="M234.4 69.8c0-23.6 11.3-34.9 34.9-34.9 -23.6 0-34.9-11.3-34.9-34.9 0 23.6-11.3 34.9-34.9 34.9C223 34.9 234.4 46.2 234.4 69.8z"/>
  </g>
</svg>
