<svg xmlns="http://www.w3.org/2000/svg" xmlns:xlink="http://www.w3.org/1999/xlink" version="1.1" id="Layer_1" x="0" y="0" viewBox="0 0 129 152.2" enable-background="new 0 0 129 152.2" xml:space="preserve">
  <path fill="#354748" d="M125 72.1c-2.2 0-4 1.8-4 4 0 31.2-25.4 56.6-56.6 56.6 -16 0-31.3-6.9-42-18.7h30c2.2 0 4-1.8 4-4s-1.8-4-4-4H14.2c-2.2 0-4 1.8-4 4v38.2c0 2.2 1.8 4 4 4s4-1.8 4-4v-27c12.1 12.3 28.8 19.5 46.2 19.5 35.6 0 64.6-29 64.6-64.6C129 73.9 127.2 72.1 125 72.1z"/>
  <path fill="#354748" d="M64.6 19.5c16 0 31.3 6.9 42 18.7h-30c-2.2 0-4 1.8-4 4 0 2.2 1.8 4 4 4h38.2c2.2 0 4-1.8 4-4V4c0-2.2-1.8-4-4-4s-4 1.8-4 4v27C98.7 18.7 82 11.5 64.6 11.5 29 11.5 0 40.5 0 76.1c0 2.2 1.8 4 4 4 2.2 0 4-1.8 4-4C8 44.9 33.4 19.5 64.6 19.5z"/>
</svg>
