<svg xmlns="http://www.w3.org/2000/svg" xmlns:xlink="http://www.w3.org/1999/xlink" version="1.1" id="Layer_1" x="0" y="0" viewBox="0 0 329.8 468.2" enable-background="new 0 0 329.8 468.2" xml:space="preserve">
  <path fill="#354A60" d="M269.2 414.2C214.1 357 265 222.8 265 222.8l-83.7-6.1 -83.6 6.1c0 0 50.8 134.2-4.3 191.4 -10.6 11 14.9 54 87.9 54S279.8 425.2 269.2 414.2z"/>
  <path fill="#2C3F51" d="M265 222.8c0 0-50.9 134.2 4.2 191.4 10.6 11-14.9 54-87.9 54V216.7L265 222.8z"/>
  <path fill="#EE493C" d="M238.4 220.9l-57.2-4.2 -56.7 4.1c-8.8 1.8-17.2 4.1-25.1 6.7 4.3 12.4 15.3 47.6 18.7 85.7 33-8.3 63.2-21.9 63.2-21.9s30.3 13.7 63.3 21.9c3.4-38.2 14.5-73.4 18.8-85.8C255.5 224.9 247.2 222.7 238.4 220.9z"/>
  <path fill="#C7372B" d="M263.4 227.5c-7.8-2.6-16.2-4.8-24.9-6.6l-57.2-4.2v74.7c0 0 30.3 13.7 63.3 21.9C247.9 275 259.1 239.9 263.4 227.5z"/>
  <path opacity="0.5" fill="#EDF0F1" d="M123.4 257.8c0 0 31.7 128.1-17.3 187.8 4.2 3.6 9.3 7 15.3 10.1 49.8-59.9 25.8-197.1 25.8-197.1L123.4 257.8z"/>
  <path fill="#354A60" d="M181.3 178.6c-85 0-161.5 37.6-143.5 85.2 18 47.7 143.5-9 143.5-9s125.5 56.7 143.5 9C342.8 216.2 267.3 178.6 181.3 178.6z"/>
  <path fill="#2C3F51" d="M181.3 178.6v76.2c0 0 125.5 56.7 143.5 9C342.8 216.2 267.3 178.6 181.3 178.6z"/>
  <path opacity="0.4" fill="#2B3F50" d="M286.7 251.6c-31.3 0-80-19.4-96.1-26.6l-9.2-4.4 -9.2 4c-16.1 7.3-64.8 26-96.1 26 -7.2 0-16-1.2-17.3-4.7 -2.1-5.7-1.4-10.5 2.4-16 6.9-10 22.5-19.7 42.8-26.8 22.6-7.9 50.1-12.2 77.4-12.2 27.6 0 55.2 4.3 77.7 12.2 20.2 7 35.6 16.7 42.5 26.6 3.9 5.6 4.6 11 2.4 16.8C302.7 249.9 293.9 251.6 286.7 251.6L286.7 251.6z"/>
  <path fill="#EDF0F1" d="M129.7 86.6c-37.8 6.5-20.4 70.3-3.7 114 6 15.7 11.9 28.8 15.2 35.7 2.9-0.9 5.7-1.9 8.4-2.8 2-0.7 4-1.4 5.9-2.1 2.7-1 5.3-2 7.6-2.9 1-7.9 2.5-20.1 3.4-34.3C169.6 147.2 167.8 80 129.7 86.6z"/>
  <path fill="#EC7C2C" d="M148 131.4c-2.4-2.8-5-4.1-8.4-4.1 -0.9 0-1.8 0.1-2.7 0.2 -4.4 0.8-7.2 2.8-9.1 6.5 -6.2 12.3-0.8 38.4 7.9 64.2 4.2 12.3 9.1 24.5 13.9 35.1 2-0.7 4-1.4 5.9-2.1 1.1-9 2.4-22.3 2.9-36.5 0 0 0 0 0 0C159.8 151.9 152.5 136.7 148 131.4z"/>
  <path fill="#BDC3C7" d="M231.9 86.6c-38.1-6.6-39.9 60.6-36.7 107.5 1 0.1 0.9 0.1 0 0 1 14.3 2.4 26.6 3.5 34.5 2.3 0.9 4.9 1.9 7.6 2.9 1.8 0.7 3.8 1.4 5.7 2.1 2.7 1 5.5 1.9 8.4 2.9 3.2-6.9 9.2-20.1 15.3-36.1C252.3 156.8 269.6 93.1 231.9 86.6z"/>
  <path fill="#D95427" d="M233.8 134.1c-1.9-3.7-4.7-5.7-9.1-6.5 -1-0.2-1.9-0.2-2.7-0.2 -3.4 0-6 1.3-8.4 4.1 -4.5 5.2-11.3 20.5-10.3 63.4v0c0 0 0 0 0 0 0.5 14.3 1.8 27.7 2.9 36.8 1.8 0.7 3.8 1.4 5.7 2.1 4.8-10.7 9.8-23 14-35.4 0 0 0 0 0 0 0 0 0 0 0 0C234.7 172.5 240 146.3 233.8 134.1z"/>
  <path fill="#F4C341" d="M43.9 193.7c0-29.7-14.3-43.9-43.9-43.9 29.7 0 43.9-14.3 43.9-43.9 0 29.7 14.3 43.9 43.9 43.9C58.2 149.7 43.9 164 43.9 193.7z"/>
  <path fill="#F4C341" d="M182.6 87.1c0-29.4-14.1-43.6-43.6-43.6 29.4 0 43.6-14.1 43.6-43.6 0 29.4 14.1 43.6 43.6 43.6C196.7 43.6 182.6 57.7 182.6 87.1z"/>
  <path fill="#EDF0F1" d="M299.8 174.7c0-20.2-9.7-29.9-29.9-29.9 20.2 0 29.9-9.7 29.9-29.9 0 20.2 9.7 29.9 29.9 29.9C309.5 144.8 299.8 154.5 299.8 174.7z"/>
  <path fill="#EDF0F1" d="M106.8 85.7c0-13.5-6.5-19.9-19.9-19.9 13.5 0 19.9-6.5 19.9-19.9 0 13.5 6.5 19.9 19.9 19.9C113.3 65.8 106.8 72.3 106.8 85.7z"/>
</svg>
