<svg xmlns="http://www.w3.org/2000/svg" xmlns:xlink="http://www.w3.org/1999/xlink" version="1.1" id="Layer_1" x="0" y="0" viewBox="-987 989 24 24" enable-background="new -987 989 24 24" xml:space="preserve">
  <path d="M-967 1011h-1c0 0-1 0-1-1v-3.5c0-0.3-0.2-0.5-0.5-0.5s-0.5 0.2-0.5 0.5l0 4.3c0 0.6-2 2.2-6.5 2.2s-6.5-1.6-6.5-2.2l0-4.3c0-0.3-0.2-0.5-0.5-0.5 -0.3 0-0.5 0.2-0.5 0.5v3.5c0 1-1 1-1 1h-1c0 0-1 0-1-1v-5.2c0-2.9 2.9-5.4 6.9-6.3 0 0 1.2 1.1 3.6 1.1 2.3 0 3.6-1.1 3.6-1.1 4 0.9 6.9 3.4 6.9 6.3v5.2C-966 1011-967 1011-967 1011zM-976.5 998c-2.5 0-4.5-2-4.5-4.5 0-2.5 2-4.5 4.5-4.5 2.5 0 4.5 2 4.5 4.5C-972 996-974 998-976.5 998z"/>
</svg>
