<svg xmlns="http://www.w3.org/2000/svg" xmlns:xlink="http://www.w3.org/1999/xlink" version="1.1" id="Layer_1" x="0" y="0" viewBox="0 0 270 354" enable-background="new 0 0 270 354" xml:space="preserve">
  <path fill="#EDF0F1" d="M212 58V2c-2.7-1.2-5.6-2-8-2H8C3.6 0 0 3.6 0 8v338c0 4.4 3.6 8 8 8h254c4.4 0 8-3.6 8-8V66c0-2.4-0.8-5.3-2-8H212z"/>
  <path fill="#BDC3C7" d="M268 58c-1-2.2-2.3-4.2-3.7-5.7L241 29 217.6 5.6C216.2 4.2 214.2 3 212 2v56H268z"/>
  <rect x="44" y="91" fill="#EA4D36" width="38" height="86"/>
  <rect x="92" y="109" fill="#F5CD22" width="38" height="68"/>
  <rect x="140" y="126" fill="#2C3F51" width="38" height="51"/>
  <rect x="188" y="63" fill="#22B99A" width="38" height="114"/>
  <rect x="44" y="190" fill="#BDC3C7" width="182" height="12"/>
  <path fill="#F5CD22" d="M129.4 238.7c-9.1-7.9-20.9-12.7-33.9-12.7 -0.2 0-0.3 0-0.5 0v53.9L129.4 238.7z"/>
  <path fill="#22B99A" d="M95 226c-28.2 0.3-51 23.2-51 51.5 0 16.3 7.6 30.8 19.4 40.3L95 279.9V226z"/>
  <path fill="#EA4D36" d="M129.4 238.7L95 279.9V329c0.2 0 0.3 0 0.5 0 28.4 0 51.5-23.1 51.5-51.5C147 262 140.2 248.2 129.4 238.7z"/>
  <path fill="#2C3F51" d="M63.4 317.8C72.1 324.7 83 328.9 95 329v-49.1L63.4 317.8z"/>
  <circle fill="#F5CD22" cx="176" cy="247.5" r="8"/>
  <circle fill="#22B99A" cx="176" cy="267.5" r="8"/>
  <circle fill="#2C3F51" cx="176" cy="287.5" r="8"/>
  <circle fill="#EA4D36" cx="176" cy="307.5" r="8"/>
  <path fill="#BDC3C7" d="M240 249h-45c-1.4 0-2.5-1.1-2.5-2.5s1.1-2.5 2.5-2.5h45c1.4 0 2.5 1.1 2.5 2.5S241.4 249 240 249z"/>
  <path fill="#BDC3C7" d="M232 269h-37c-1.4 0-2.5-1.1-2.5-2.5s1.1-2.5 2.5-2.5h37c1.4 0 2.5 1.1 2.5 2.5S233.4 269 232 269z"/>
  <path fill="#BDC3C7" d="M232 289h-37c-1.4 0-2.5-1.1-2.5-2.5s1.1-2.5 2.5-2.5h37c1.4 0 2.5 1.1 2.5 2.5S233.4 289 232 289z"/>
  <path fill="#BDC3C7" d="M237 309h-44c-1.4 0-2.5-1.1-2.5-2.5s1.1-2.5 2.5-2.5h44c1.4 0 2.5 1.1 2.5 2.5S238.4 309 237 309z"/>
  <rect x="16" y="13" fill="#BDC3C7" width="69" height="17"/>
  <path fill="#BDC3C7" d="M176 15H95c-1.4 0-2.5-1.1-2.5-2.5S93.6 10 95 10h81c1.4 0 2.5 1.1 2.5 2.5S177.4 15 176 15z"/>
  <path fill="#BDC3C7" d="M159 24H95c-1.4 0-2.5-1.1-2.5-2.5S93.6 19 95 19h64c1.4 0 2.5 1.1 2.5 2.5S160.4 24 159 24z"/>
  <path fill="#BDC3C7" d="M184 32H95c-1.4 0-2.5-1.1-2.5-2.5S93.6 27 95 27h89c1.4 0 2.5 1.1 2.5 2.5S185.4 32 184 32z"/>
  <rect x="16" y="44" fill="#2C3F51" width="172" height="12"/>
</svg>
