<svg xmlns="http://www.w3.org/2000/svg" xmlns:xlink="http://www.w3.org/1999/xlink" version="1.1" id="Layer_1" x="0" y="0" viewBox="-987 989 24 24" enable-background="new -987 989 24 24" xml:space="preserve">
  <path d="M-975 989c-6.6 0-12 5.4-12 12 0 6.6 5.4 12 12 12 6.6 0 12-5.4 12-12C-963 994.4-968.4 989-975 989zM-970.6 1005.7l-0.3 0.3c-0.3 0.3-0.8 0.3-1.1 0l-4.5-4c-0.3-0.3-0.5-0.8-0.5-1.2l0.4-7.1c0-0.4 0.4-0.8 0.8-0.8h0.5c0.4 0 0.8 0.3 0.8 0.8l0.3 5.9c0 0.4 0.3 1 0.5 1.3l3.1 3.6C-970.3 1004.9-970.3 1005.4-970.6 1005.7z"/>
</svg>
