<svg xmlns="http://www.w3.org/2000/svg" xmlns:xlink="http://www.w3.org/1999/xlink" version="1.1" id="Layer_1" x="0" y="0" viewBox="-987 989 24 24" enable-background="new -987 989 24 24" xml:space="preserve">
  <path d="M-965 993h-2v-2c0-1.1-0.9-2-2-2h-16c-1.1 0-2 0.9-2 2v16c0 1.1 0.9 2 2 2h2v2c0 1.1 0.9 2 2 2h16c1.1 0 2-0.9 2-2v-16C-963 993.9-963.9 993-965 993zM-980 991c0.6 0 1 0.4 1 1s-0.4 1-1 1 -1-0.4-1-1S-980.6 991-980 991zM-983 991c0.6 0 1 0.4 1 1s-0.4 1-1 1 -1-0.4-1-1S-983.6 991-983 991zM-984 1006v-11h14v11H-984zM-966 1010h-14v-1h11c1.1 0 2-0.9 2-2v-8h1V1010z"/>
</svg>
